<mxfile host="app.diagrams.net" modified="2021-12-23T11:01:19.548Z" agent="5.0 (X11; Linux x86_64) AppleWebKit/537.36 (KHTML, like Gecko) Chrome/94.0.4606.61 Safari/537.36" etag="0AF5S36fS5Qhi55b5fjt" version="16.0.3" type="github">
  <diagram name="Page-1" id="74e2e168-ea6b-b213-b513-2b3c1d86103e">
    <mxGraphModel dx="1355" dy="773" grid="1" gridSize="10" guides="1" tooltips="1" connect="1" arrows="1" fold="1" page="1" pageScale="1" pageWidth="1100" pageHeight="850" background="none" math="0" shadow="0">
      <root>
        <mxCell id="0" />
        <mxCell id="1" parent="0" />
        <mxCell id="77e6c97f196da883-1" value="Pool" style="swimlane;childLayout=stackLayout;startSize=20;rounded=0;shadow=0;labelBackgroundColor=#FFFFFF;strokeWidth=1;fontFamily=Verdana;fontSize=8;align=center;html=1;verticalAlign=top;" parent="1" vertex="1">
          <mxGeometry x="70" y="20" width="1250" height="1370" as="geometry">
            <mxRectangle x="70" y="40" width="50" height="20" as="alternateBounds" />
          </mxGeometry>
        </mxCell>
        <mxCell id="77e6c97f196da883-2" value="初始化" style="swimlane;html=1;startSize=20;" parent="77e6c97f196da883-1" vertex="1">
          <mxGeometry y="20" width="330" height="1350" as="geometry">
            <mxRectangle y="20" width="30" height="1350" as="alternateBounds" />
          </mxGeometry>
        </mxCell>
        <mxCell id="C_RfmfMOIDp-wROfM4-I-9" value="" style="edgeStyle=orthogonalEdgeStyle;rounded=0;orthogonalLoop=1;jettySize=auto;html=1;" edge="1" parent="77e6c97f196da883-2" source="TAeXimYTrAAsLPNK2JK7-3" target="C_RfmfMOIDp-wROfM4-I-1">
          <mxGeometry relative="1" as="geometry" />
        </mxCell>
        <mxCell id="TAeXimYTrAAsLPNK2JK7-3" value="矩阵初始化，包括：&lt;br&gt;&lt;div&gt;&lt;span&gt;1. 基于动力学模型的A，B: 包括其离散化和带预瞄的复合矩阵&lt;/span&gt;&lt;/div&gt;2. LQR优化需要的K，Q，R矩阵：预加载Q正向参数，做低速控制；并初始化高速控制需要Q_update" style="rounded=0;whiteSpace=wrap;html=1;align=left;" parent="77e6c97f196da883-2" vertex="1">
          <mxGeometry x="22" y="251" width="193" height="130" as="geometry" />
        </mxCell>
        <mxCell id="C_RfmfMOIDp-wROfM4-I-1" value="根据control_conf_配置参数初始化滤波器" style="rounded=0;whiteSpace=wrap;html=1;" vertex="1" parent="77e6c97f196da883-2">
          <mxGeometry x="57" y="410" width="120" height="60" as="geometry" />
        </mxCell>
        <mxCell id="C_RfmfMOIDp-wROfM4-I-17" value="" style="edgeStyle=orthogonalEdgeStyle;rounded=0;orthogonalLoop=1;jettySize=auto;html=1;" edge="1" parent="77e6c97f196da883-2" source="C_RfmfMOIDp-wROfM4-I-5" target="C_RfmfMOIDp-wROfM4-I-16">
          <mxGeometry relative="1" as="geometry" />
        </mxCell>
        <mxCell id="C_RfmfMOIDp-wROfM4-I-5" value="加载LatGainScheduler：&lt;br&gt;生成与速度相关的比例曲线，在高速控制时，根据当前车身插值产生不同的比例系数，用于矫正横向偏差和航向角偏差" style="whiteSpace=wrap;html=1;rounded=0;align=left;" vertex="1" parent="77e6c97f196da883-2">
          <mxGeometry x="47" y="490" width="140" height="90" as="geometry" />
        </mxCell>
        <mxCell id="C_RfmfMOIDp-wROfM4-I-6" value="" style="edgeStyle=orthogonalEdgeStyle;rounded=0;orthogonalLoop=1;jettySize=auto;html=1;" edge="1" parent="77e6c97f196da883-2" source="C_RfmfMOIDp-wROfM4-I-1" target="C_RfmfMOIDp-wROfM4-I-5">
          <mxGeometry relative="1" as="geometry" />
        </mxCell>
        <mxCell id="C_RfmfMOIDp-wROfM4-I-83" style="edgeStyle=orthogonalEdgeStyle;rounded=0;orthogonalLoop=1;jettySize=auto;html=1;exitX=1;exitY=0.5;exitDx=0;exitDy=0;exitPerimeter=0;fontSize=10;" edge="1" parent="77e6c97f196da883-2" source="C_RfmfMOIDp-wROfM4-I-13" target="C_RfmfMOIDp-wROfM4-I-39">
          <mxGeometry relative="1" as="geometry" />
        </mxCell>
        <mxCell id="C_RfmfMOIDp-wROfM4-I-96" value="是" style="edgeStyle=orthogonalEdgeStyle;rounded=0;orthogonalLoop=1;jettySize=auto;html=1;fontSize=10;" edge="1" parent="77e6c97f196da883-2" source="C_RfmfMOIDp-wROfM4-I-13" target="TAeXimYTrAAsLPNK2JK7-3">
          <mxGeometry relative="1" as="geometry" />
        </mxCell>
        <mxCell id="C_RfmfMOIDp-wROfM4-I-13" value="加载&lt;br&gt;control_conf_&lt;br&gt;成功？" style="strokeWidth=2;html=1;shape=mxgraph.flowchart.decision;whiteSpace=wrap;" vertex="1" parent="77e6c97f196da883-2">
          <mxGeometry x="67" y="150" width="100" height="60" as="geometry" />
        </mxCell>
        <mxCell id="C_RfmfMOIDp-wROfM4-I-16" value="打印显示初始参数：&lt;br&gt;质量，惯量，侧偏刚度" style="rounded=0;whiteSpace=wrap;html=1;align=left;" vertex="1" parent="77e6c97f196da883-2">
          <mxGeometry x="52" y="610" width="130" height="60" as="geometry" />
        </mxCell>
        <mxCell id="C_RfmfMOIDp-wROfM4-I-18" value="加载是否使用反向leadlag控制标志enable_leadlag_" style="whiteSpace=wrap;html=1;align=left;rounded=0;" vertex="1" parent="77e6c97f196da883-2">
          <mxGeometry x="57" y="700" width="120" height="60" as="geometry" />
        </mxCell>
        <mxCell id="C_RfmfMOIDp-wROfM4-I-19" value="" style="edgeStyle=orthogonalEdgeStyle;rounded=0;orthogonalLoop=1;jettySize=auto;html=1;" edge="1" parent="77e6c97f196da883-2" source="C_RfmfMOIDp-wROfM4-I-16" target="C_RfmfMOIDp-wROfM4-I-18">
          <mxGeometry relative="1" as="geometry" />
        </mxCell>
        <mxCell id="C_RfmfMOIDp-wROfM4-I-24" value="是" style="edgeStyle=orthogonalEdgeStyle;rounded=0;orthogonalLoop=1;jettySize=auto;html=1;" edge="1" parent="77e6c97f196da883-2" source="C_RfmfMOIDp-wROfM4-I-20" target="C_RfmfMOIDp-wROfM4-I-23">
          <mxGeometry relative="1" as="geometry" />
        </mxCell>
        <mxCell id="C_RfmfMOIDp-wROfM4-I-20" value="enable_leadlag_" style="rhombus;whiteSpace=wrap;html=1;align=center;rounded=0;" vertex="1" parent="77e6c97f196da883-2">
          <mxGeometry x="52" y="780" width="130" height="40" as="geometry" />
        </mxCell>
        <mxCell id="C_RfmfMOIDp-wROfM4-I-21" value="" style="edgeStyle=orthogonalEdgeStyle;rounded=0;orthogonalLoop=1;jettySize=auto;html=1;" edge="1" parent="77e6c97f196da883-2" source="C_RfmfMOIDp-wROfM4-I-18" target="C_RfmfMOIDp-wROfM4-I-20">
          <mxGeometry relative="1" as="geometry" />
        </mxCell>
        <mxCell id="C_RfmfMOIDp-wROfM4-I-30" value="" style="edgeStyle=orthogonalEdgeStyle;rounded=0;orthogonalLoop=1;jettySize=auto;html=1;" edge="1" parent="77e6c97f196da883-2" source="C_RfmfMOIDp-wROfM4-I-23" target="C_RfmfMOIDp-wROfM4-I-26">
          <mxGeometry relative="1" as="geometry" />
        </mxCell>
        <mxCell id="C_RfmfMOIDp-wROfM4-I-23" value="加载反向leadlag" style="whiteSpace=wrap;html=1;rounded=0;" vertex="1" parent="77e6c97f196da883-2">
          <mxGeometry x="57" y="859" width="120" height="38" as="geometry" />
        </mxCell>
        <mxCell id="C_RfmfMOIDp-wROfM4-I-34" style="edgeStyle=orthogonalEdgeStyle;rounded=0;orthogonalLoop=1;jettySize=auto;html=1;entryX=0.5;entryY=0;entryDx=0;entryDy=0;" edge="1" parent="77e6c97f196da883-2" source="C_RfmfMOIDp-wROfM4-I-26" target="C_RfmfMOIDp-wROfM4-I-27">
          <mxGeometry relative="1" as="geometry" />
        </mxCell>
        <mxCell id="C_RfmfMOIDp-wROfM4-I-26" value="加载enable_mrac_" style="whiteSpace=wrap;html=1;align=left;rounded=0;" vertex="1" parent="77e6c97f196da883-2">
          <mxGeometry x="57" y="940" width="120" height="40" as="geometry" />
        </mxCell>
        <mxCell id="C_RfmfMOIDp-wROfM4-I-35" value="是" style="edgeStyle=orthogonalEdgeStyle;rounded=0;orthogonalLoop=1;jettySize=auto;html=1;" edge="1" parent="77e6c97f196da883-2" source="C_RfmfMOIDp-wROfM4-I-27" target="C_RfmfMOIDp-wROfM4-I-28">
          <mxGeometry relative="1" as="geometry" />
        </mxCell>
        <mxCell id="C_RfmfMOIDp-wROfM4-I-27" value="enable_mrac_" style="rhombus;whiteSpace=wrap;html=1;align=center;rounded=0;" vertex="1" parent="77e6c97f196da883-2">
          <mxGeometry x="52" y="1010" width="130" height="40" as="geometry" />
        </mxCell>
        <mxCell id="C_RfmfMOIDp-wROfM4-I-36" value="" style="edgeStyle=orthogonalEdgeStyle;rounded=0;orthogonalLoop=1;jettySize=auto;html=1;" edge="1" parent="77e6c97f196da883-2" source="C_RfmfMOIDp-wROfM4-I-28" target="C_RfmfMOIDp-wROfM4-I-29">
          <mxGeometry relative="1" as="geometry" />
        </mxCell>
        <mxCell id="C_RfmfMOIDp-wROfM4-I-28" value="加载是否使用质心控制标志enable_look_ahead_back_control_" style="whiteSpace=wrap;html=1;align=left;rounded=0;" vertex="1" parent="77e6c97f196da883-2">
          <mxGeometry x="22" y="1080" width="190" height="40" as="geometry" />
        </mxCell>
        <mxCell id="C_RfmfMOIDp-wROfM4-I-79" value="是" style="edgeStyle=orthogonalEdgeStyle;rounded=0;orthogonalLoop=1;jettySize=auto;html=1;fontSize=10;" edge="1" parent="77e6c97f196da883-2" source="C_RfmfMOIDp-wROfM4-I-29" target="C_RfmfMOIDp-wROfM4-I-76">
          <mxGeometry relative="1" as="geometry" />
        </mxCell>
        <mxCell id="C_RfmfMOIDp-wROfM4-I-29" value="&lt;span style=&quot;text-align: left&quot;&gt;enable_look_ahead_back_control_&lt;/span&gt;" style="rhombus;whiteSpace=wrap;html=1;align=center;rounded=0;" vertex="1" parent="77e6c97f196da883-2">
          <mxGeometry x="9.5" y="1160" width="215" height="50" as="geometry" />
        </mxCell>
        <mxCell id="C_RfmfMOIDp-wROfM4-I-39" value="返回ErrorCode::&lt;br style=&quot;font-size: 10px;&quot;&gt;CONTROL_COMPUTE_ERROR" style="strokeWidth=2;html=1;shape=mxgraph.flowchart.terminator;whiteSpace=wrap;fontSize=10;" vertex="1" parent="77e6c97f196da883-2">
          <mxGeometry x="162" y="200" width="150" height="40" as="geometry" />
        </mxCell>
        <mxCell id="C_RfmfMOIDp-wROfM4-I-76" value="加载enable_look_ahead_back_control" style="whiteSpace=wrap;html=1;align=left;rounded=0;" vertex="1" parent="77e6c97f196da883-2">
          <mxGeometry x="22" y="1240" width="190" height="40" as="geometry" />
        </mxCell>
        <mxCell id="C_RfmfMOIDp-wROfM4-I-37" value="返回&lt;br&gt;Status::OK()" style="strokeWidth=2;html=1;shape=mxgraph.flowchart.terminator;whiteSpace=wrap;" vertex="1" parent="77e6c97f196da883-2">
          <mxGeometry x="72" y="1310" width="90" height="30" as="geometry" />
        </mxCell>
        <mxCell id="C_RfmfMOIDp-wROfM4-I-80" value="" style="edgeStyle=orthogonalEdgeStyle;rounded=0;orthogonalLoop=1;jettySize=auto;html=1;fontSize=10;" edge="1" parent="77e6c97f196da883-2" source="C_RfmfMOIDp-wROfM4-I-76" target="C_RfmfMOIDp-wROfM4-I-37">
          <mxGeometry relative="1" as="geometry" />
        </mxCell>
        <mxCell id="C_RfmfMOIDp-wROfM4-I-94" value="" style="edgeStyle=orthogonalEdgeStyle;rounded=0;orthogonalLoop=1;jettySize=auto;html=1;fontSize=10;" edge="1" parent="77e6c97f196da883-2" source="C_RfmfMOIDp-wROfM4-I-91" target="C_RfmfMOIDp-wROfM4-I-92">
          <mxGeometry relative="1" as="geometry" />
        </mxCell>
        <mxCell id="C_RfmfMOIDp-wROfM4-I-91" value="开始" style="strokeWidth=2;html=1;shape=mxgraph.flowchart.start_2;whiteSpace=wrap;labelBackgroundColor=#FFFFFF;fontSize=10;" vertex="1" parent="77e6c97f196da883-2">
          <mxGeometry x="102" y="50" width="30" height="30" as="geometry" />
        </mxCell>
        <mxCell id="C_RfmfMOIDp-wROfM4-I-95" value="" style="edgeStyle=orthogonalEdgeStyle;rounded=0;orthogonalLoop=1;jettySize=auto;html=1;fontSize=10;" edge="1" parent="77e6c97f196da883-2" source="C_RfmfMOIDp-wROfM4-I-92" target="C_RfmfMOIDp-wROfM4-I-13">
          <mxGeometry relative="1" as="geometry" />
        </mxCell>
        <mxCell id="C_RfmfMOIDp-wROfM4-I-92" value="加载控制配置参数&lt;br&gt;和车身状态" style="whiteSpace=wrap;html=1;fontSize=10;strokeWidth=2;" vertex="1" parent="77e6c97f196da883-2">
          <mxGeometry x="57" y="100" width="120" height="25" as="geometry" />
        </mxCell>
        <mxCell id="77e6c97f196da883-3" value="ComputeControlCommand" style="swimlane;html=1;startSize=20;" parent="77e6c97f196da883-1" vertex="1">
          <mxGeometry x="330" y="20" width="280" height="1350" as="geometry" />
        </mxCell>
        <mxCell id="C_RfmfMOIDp-wROfM4-I-86" value="" style="edgeStyle=orthogonalEdgeStyle;rounded=0;orthogonalLoop=1;jettySize=auto;html=1;fontSize=10;" edge="1" parent="77e6c97f196da883-3" target="C_RfmfMOIDp-wROfM4-I-85">
          <mxGeometry relative="1" as="geometry">
            <mxPoint x="140" y="90" as="sourcePoint" />
          </mxGeometry>
        </mxCell>
        <mxCell id="C_RfmfMOIDp-wROfM4-I-85" value="加载车身状态和目标轨迹" style="whiteSpace=wrap;html=1;fontSize=10;strokeWidth=2;" vertex="1" parent="77e6c97f196da883-3">
          <mxGeometry x="80" y="110" width="120" height="25" as="geometry" />
        </mxCell>
        <mxCell id="C_RfmfMOIDp-wROfM4-I-87" value="use_navigation_mode &amp;amp;&lt;br&gt;enable_navigation_mode_position_update" style="strokeWidth=2;html=1;shape=mxgraph.flowchart.decision;fontSize=10;whiteSpace=wrap;" vertex="1" parent="77e6c97f196da883-3">
          <mxGeometry x="45" y="160" width="190" height="39" as="geometry" />
        </mxCell>
        <mxCell id="C_RfmfMOIDp-wROfM4-I-89" value="default: false &amp;amp; true" style="strokeWidth=2;html=1;shape=mxgraph.flowchart.annotation_1;align=left;pointerEvents=1;labelBackgroundColor=#FFFFFF;fontSize=10;" vertex="1" parent="77e6c97f196da883-3">
          <mxGeometry x="150" y="199" width="40" height="20" as="geometry" />
        </mxCell>
        <mxCell id="C_RfmfMOIDp-wROfM4-I-90" value="开始" style="strokeWidth=2;html=1;shape=mxgraph.flowchart.start_2;whiteSpace=wrap;labelBackgroundColor=#FFFFFF;fontSize=10;" vertex="1" parent="77e6c97f196da883-3">
          <mxGeometry x="125" y="60" width="30" height="30" as="geometry" />
        </mxCell>
        <mxCell id="77e6c97f196da883-4" value="Lane 3" style="swimlane;html=1;startSize=20;" parent="77e6c97f196da883-1" vertex="1">
          <mxGeometry x="610" y="20" width="160" height="1350" as="geometry" />
        </mxCell>
        <mxCell id="77e6c97f196da883-5" value="Lane 4" style="swimlane;html=1;startSize=20;" parent="77e6c97f196da883-1" vertex="1">
          <mxGeometry x="770" y="20" width="160" height="1350" as="geometry" />
        </mxCell>
        <mxCell id="77e6c97f196da883-6" value="Lane 5" style="swimlane;html=1;startSize=20;" parent="77e6c97f196da883-1" vertex="1">
          <mxGeometry x="930" y="20" width="160" height="1350" as="geometry" />
        </mxCell>
        <mxCell id="77e6c97f196da883-7" value="Lane 6" style="swimlane;html=1;startSize=20;" parent="77e6c97f196da883-1" vertex="1">
          <mxGeometry x="1090" y="20" width="160" height="1350" as="geometry" />
        </mxCell>
        <mxCell id="C_RfmfMOIDp-wROfM4-I-41" value="否" style="edgeStyle=orthogonalEdgeStyle;rounded=0;orthogonalLoop=1;jettySize=auto;html=1;exitX=1;exitY=0.5;exitDx=0;exitDy=0;fontSize=10;" edge="1" parent="1" source="C_RfmfMOIDp-wROfM4-I-20">
          <mxGeometry x="-0.9289" relative="1" as="geometry">
            <mxPoint x="187" y="960" as="targetPoint" />
            <Array as="points">
              <mxPoint x="280" y="840" />
              <mxPoint x="280" y="960" />
            </Array>
            <mxPoint as="offset" />
          </mxGeometry>
        </mxCell>
        <mxCell id="C_RfmfMOIDp-wROfM4-I-77" value="否" style="edgeStyle=orthogonalEdgeStyle;rounded=0;orthogonalLoop=1;jettySize=auto;html=1;exitX=1;exitY=0.5;exitDx=0;exitDy=0;fontSize=10;" edge="1" parent="1" source="C_RfmfMOIDp-wROfM4-I-27">
          <mxGeometry x="-0.8642" relative="1" as="geometry">
            <mxPoint x="187" y="1180" as="targetPoint" />
            <Array as="points">
              <mxPoint x="297" y="1070" />
              <mxPoint x="297" y="1180" />
              <mxPoint x="187" y="1180" />
            </Array>
            <mxPoint as="offset" />
          </mxGeometry>
        </mxCell>
        <mxCell id="C_RfmfMOIDp-wROfM4-I-82" value="否" style="edgeStyle=orthogonalEdgeStyle;rounded=0;orthogonalLoop=1;jettySize=auto;html=1;exitX=1;exitY=0.5;exitDx=0;exitDy=0;fontSize=10;" edge="1" parent="1" source="C_RfmfMOIDp-wROfM4-I-29">
          <mxGeometry x="-0.9583" relative="1" as="geometry">
            <mxPoint x="187" y="1350" as="targetPoint" />
            <Array as="points">
              <mxPoint x="315" y="1225" />
              <mxPoint x="315" y="1350" />
            </Array>
            <mxPoint as="offset" />
          </mxGeometry>
        </mxCell>
      </root>
    </mxGraphModel>
  </diagram>
</mxfile>
